<svg xmlns="http://www.w3.org/2000/svg" width="176" height="60" viewBox="0 0 176 60">
  <g fill="none" fill-rule="evenodd">
    <path fill="#212121" d="M175.581093 54.4092962C175.322992 54.150856 175.026215 54.0179673 174.687507 53.9979932L174.687507 53.9898405 151.402162 53.9898405 175.344161 23.3072099C175.763067 22.7948136 175.855479 22.2820097 175.623432 21.7708364 175.388535 21.2580325 174.946423 21 174.297912 21L139.397577 21C139.023858 21 138.698585 21.1300353 138.418907 21.3868449 138.138821 21.6412087 138 21.9550871 138 22.3268495L138 25.5430838C138 25.9625395 138.128644 26.3131049 138.386339 26.5898886 138.640776 26.8703409 138.97867 27.0097519 139.397577 27.0097519L162.431334 27.0097519 138.418907 57.6936054C138 58.205594 137.907588 58.717175 138.138821 59.2299789 138.37494 59.7452286 138.814201 60 139.467598 60L174.687507 60 174.687507 59.9914397C175.026215 59.9714656 175.322992 59.836131 175.581093 59.5805443 175.860772 59.300092 176 58.9743922 176 58.6026298L176 55.3868031C176 55.0121872 175.860772 54.6873027 175.581093 54.4092962M124.451039 9L130.546844 9C130.932885 9 131.27321 8.85240307 131.564434 8.56104844 131.854388 8.26756091 132 7.92672291 132 7.53512181L132 1.46487819C132 1.07583657 131.854388.732439094 131.564434.440231302 131.27321.150156413 130.932885 0 130.546844 0L124.451039 0C124.064999 0 123.72425.150156413 123.435989.440231302 123.146458.732439094 123 1.07583657 123 1.46487819L123 7.53512181C123 7.92672291 123.146458 8.26756091 123.435989 8.56104844 123.72425 8.85240307 124.064999 9 124.451039 9M130.558085 21L124.439395 21C124.056452 21 123.718438 21.1756812 123.43249 21.5262283 123.145283 21.8755526 123 22.2366977 123 22.6096636L123 58.6002571C123 58.975261 123.145283 59.3001286 123.43249 59.5805663 123.718438 59.8597811 124.056452 60 124.439395 60L130.558085 60C130.941028 60 131.279043 59.8597811 131.569609 59.5805663 131.856396 59.3001286 132 58.975261 132 58.6002571L132 22.6096636C132 22.2366977 131.856396 21.8755526 131.569609 21.5262283 131.279043 21.1756812 130.941028 21 130.558085 21M111.71365 21.4685709C110.4282 21.1443216 108.876106 20.9787301 107.056958 20.9787301L86.7519187 20.9787301 86.7519187 1.60860314C86.7519187 1.23867336 86.6151253.876492941 86.33133.526548342 86.0536599.176195882 85.7261724 0 85.3525427 0L79.4022343 0C79.0269713 0 78.7011172.176195882 78.4214053.526548342 78.1437351.876492941 78 1.23867336 78 1.60860314L78 46.3652122C78 46.7371813 78.1437351 47.0655092 78.4214053 47.3436703 78.7011172 47.623055 79.0269713 47.7633591 79.4022343 47.7633591L85.3525427 47.7633591C85.7261724 47.7633591 86.0536599 47.623055 86.33133 47.3436703 86.6151253 47.0655092 86.7519187 46.7371813 86.7519187 46.3652122L86.7519187 26.9950853 106.709462 26.9950853C107.359128 26.9950853 107.790742 27.1341658 108.001445 27.4159977 108.212556 27.6949745 108.315457 28.2994242 108.315457 29.232202L108.315457 51.749791C108.315457 52.6850159 108.212556 53.2894656 108.001445 53.5684424 107.790742 53.8478271 107.359128 53.9897627 106.709462 53.9897627L79.4263263 53.9897627 79.0404465 53.9897627C78.8248437 54.1092659 78.6239412 54.2242827 78.4446806 54.4029257 78.1641521 54.683534 78.0245003 55.011862 78.0245003 55.383831L78.0245003 58.598998C78.0245003 58.9709671 78.1641521 59.2960322 78.4446806 59.5794955 78.6631417 59.797701 78.9114115 59.9257693 79.1862233 59.973489L107.056958 60C108.876106 60 110.4282 59.8376714 111.71365 59.513422 112.995425 59.185094 114.021987 58.6369291 114.792931 57.8685193 115.561015 57.0980701 116.122481 56.084536 116.472835 54.8266931 116.823598 53.5684424 117 51.9847188 117 50.07022L117 30.9105493C117 28.9997213 116.823598 27.4159977 116.472835 26.154892 116.122481 24.8970491 115.561015 23.8839228 114.792931 23.1122501 114.021987 22.3438403 112.995425 21.7968989 111.71365 21.4685709z"/>
    <path fill="#4CAF50" d="M70.569169.525911995C70.2794289.175982945 69.9413988 0 69.5613773 0L63.4390426 0C63.0573415 0 62.7180516.175982945 62.4320907.525911995 62.1448701.875026309 62 1.2371764 62 1.60625174L62 58.6010985C62 58.975877 62.1448701 59.3005493 62.4320907 59.580411 62.7180516 59.8598654 63.0573415 60 63.4390426 60L69.5613773 60C69.9413988 60 70.2794289 59.8598654 70.569169 59.580411 70.8563897 59.3005493 71 58.975877 71 58.6010985L71 1.60625174C71 1.2371764 70.8563897.875026309 70.569169.525911995M52.6250548 0L46.7758204 0C46.4099173 0 46.0897521.175982945 45.8141211.525911995 45.5396937.875026309 45.4012764 1.2371764 45.4012764 1.60625174L45.4012764 53.9913231 10.1116849 53.9913231C9.46974954 53.9913231 9.04847949 53.8552622 8.84185656 53.5717341 8.63563484 53.2918723 8.53051793 52.6893752 8.53051793 51.75691L8.53051793 43.7940891C8.53051793 42.8632534 8.63563484 42.2579046 8.84185656 41.979265 9.04847949 41.6994032 9.46974954 41.5584539 10.1116849 41.5584539L29.7179942 41.5584539 29.7179942 46.3108082C29.7179942 46.6806982 29.8552079 47.0102589 30.1308389 47.2864543 30.4068711 47.5655014 30.7266351 47.7064507 31.0953467 47.7064507L36.873567 47.7064507C37.2394701 47.7064507 37.5624438 47.5655014 37.8336615 47.2864543 38.1096937 47.0102589 38.248111 46.6806982 38.248111 46.3108082L38.248111 30.9436678C38.248111 29.0355564 38.0775969 27.4513026 37.7329579 26.1933504 37.3887201 24.9378424 36.8370569 23.9255331 36.0823817 23.1556078 35.324898 22.3848676 34.3134487 21.8410315 33.0540518 21.5135076 31.7922477 21.1896501 30.2692562 21.0242588 28.4802627 21.0242588L2.47666669 21.0242588C2.1083563 21.0242588 1.79059832 21.1546165 1.51657218 21.4100362 1.24054 21.6674927 1.1021227 21.9762776 1.1021227 22.3535003L1.1021227 25.5647817C1.1021227 25.9839633 1.22730008 26.3342997 1.48006211 26.6141615 1.73041689 26.8928011 2.06382204 27.0333431 2.47666669 27.0333431L28.1356237 27.0333431C28.7787626 27.0333431 29.2028412 27.1726629 29.4094641 27.4513026 29.6156858 27.7327938 29.7179942 28.2884437 29.7179942 29.1284363L29.7179942 33.3190302C29.7179942 34.2506806 29.6156858 34.8527704 29.4094641 35.134669 29.2028412 35.4120866 28.7787626 35.5522212 28.1356237 35.5522212L9.76704583 35.5522212C7.97925598 35.5522212 6.45626444 35.7159831 5.1972688 36.0398406 3.93265623 36.366957 2.92361416 36.9128301 2.16613048 37.6835702 1.41145528 38.4522735.859792114 39.4605091.515554301 40.7213128.170915278 41.979265 0 43.5627041 0 45.4708155L0 50.080591C0 51.9899244.170915278 53.5717341.515554301 54.8313157.859792114 56.0868237 1.41145528 57.1003551 2.16613048 57.8674289 2.92361416 58.6345027 3.93265623 59.1836347 5.1972688 59.509529 6.45626444 59.8358307 7.97925598 59.9975558 9.76704583 59.9975558L46.7517479 59.9975558C46.7601733 59.9975558 46.7677962 60 46.7758204 60L52.6250548 60C52.9901555 60 53.3115244 59.8598654 53.5899638 59.580411 53.8627863 59.3005493 54 58.975877 54 58.6010985L54 1.60625174C54 1.2371764 53.8627863.875026309 53.5899638.525911995 53.3115244.175982945 52.9901555 0 52.6250548 0"/>
  </g>
</svg>
