<?xml version="1.0" encoding="UTF-8"?>
<!DOCTYPE svg PUBLIC "-//W3C//DTD SVG 1.0//EN" "http://www.w3.org/TR/2001/REC-SVG-20010904/DTD/svg10.dtd">
<!-- Creator: CorelDRAW 2017 -->
<svg xmlns="http://www.w3.org/2000/svg" xml:space="preserve" width="65px" height="65px" version="1.0" style="shape-rendering:geometricPrecision; text-rendering:geometricPrecision; image-rendering:optimizeQuality; fill-rule:evenodd; clip-rule:evenodd"
viewBox="0 0 65 65"
 xmlns:xlink="http://www.w3.org/1999/xlink">
 <defs>
  <style type="text/css">
   <![CDATA[
    .fil0 {fill:none}
    .fil3 {fill:#003580}
    .fil1 {fill:#003580;fill-rule:nonzero}
    .fil2 {fill:#FFC107;fill-rule:nonzero}
   ]]>
  </style>
 </defs>
 <g id="Слой_x0020_1">
  <metadata id="CorelCorpID_0Corel-Layer"/>
  <path class="fil0" d="M0 0l65 0 0 65 -65 0 0 -65z"/>
  <g id="_1551591172288">
   <path class="fil1" d="M6.5 26.98c-0.04,-0.45 -0.06,-0.91 -0.06,-1.38l0 -18.58 8.35 0 0 17.95c0,0.74 0.1,1.4 0.28,2.01l-4.37 0.55 -4.2 -0.55zm18.5 0c0.18,-0.61 0.28,-1.29 0.28,-2.03l0 -17.93 8.38 0 0 8.56 -4.61 11.4 -1.98 0.55 -2.07 -0.55zm5.74 0l7.78 -19.25 7.82 0 12.22 30.24 -4.44 -10.99 -4.15 0.55 -4.48 -0.55 -3.01 -8.41 -0.1 0 -3.04 8.41 -4.46 0.55 -4.14 -0.55z"/>
   <path class="fil1" d="M7.72 46.84c0.78,0 1.48,0.16 2.09,0.48 0.61,0.31 1.09,0.76 1.44,1.33 0.35,0.57 0.52,1.22 0.52,1.96 0,0.7 -0.17,1.33 -0.51,1.89 -0.34,0.55 -0.81,0.99 -1.41,1.3l2.19 3.91 -3.44 0 -1.7 -3.44 -0.54 0 -0.47 0 0 3.44 -3.01 0 0 -10.87 4.84 0zm-0.14 4.92c0.21,0 0.41,-0.05 0.59,-0.15 0.18,-0.1 0.33,-0.24 0.43,-0.41 0.1,-0.18 0.16,-0.37 0.16,-0.59 0,-0.18 -0.06,-0.36 -0.16,-0.53 -0.11,-0.17 -0.25,-0.31 -0.43,-0.41 -0.18,-0.11 -0.37,-0.16 -0.58,-0.16l-1.7 0 0 2.25 1.69 0zm5.49 -4.92l7.85 0 0 2.66 -4.84 0 0 1.45 4.13 0 0 2.5 -4.13 0 0 1.59 4.91 0 0 2.67 -7.92 0 0 -10.87zm14.45 11.14c-1.04,0 -2,-0.26 -2.88,-0.77 -0.89,-0.52 -1.59,-1.21 -2.11,-2.09 -0.53,-0.87 -0.79,-1.82 -0.79,-2.86 0,-1.04 0.26,-1.99 0.79,-2.86 0.53,-0.88 1.24,-1.57 2.14,-2.07 0.89,-0.51 1.87,-0.77 2.94,-0.77 0.78,0 1.58,0.17 2.38,0.5 0.8,0.33 1.49,0.81 2.07,1.44 0.57,0.63 0.92,1.37 1.05,2.22l-3.07 0c-0.25,-0.46 -0.59,-0.8 -1.01,-1.05 -0.43,-0.24 -0.93,-0.36 -1.51,-0.36 -0.51,0 -0.97,0.12 -1.39,0.35 -0.43,0.23 -0.76,0.57 -1.01,1.01 -0.25,0.45 -0.38,0.98 -0.38,1.6 0,0.64 0.13,1.18 0.37,1.62 0.25,0.45 0.59,0.78 1.01,1 0.42,0.23 0.89,0.34 1.4,0.34 0.55,0 1.03,-0.1 1.43,-0.31 0.4,-0.2 0.68,-0.51 0.83,-0.94l-2.38 0 0 -2.35 5.77 0c0.02,1.34 -0.19,2.48 -0.63,3.43 -0.45,0.95 -1.09,1.68 -1.95,2.17 -0.85,0.5 -1.87,0.75 -3.07,0.75zm6.93 -11.14l3.01 0 0 10.87 -3.01 0 0 -10.87zm10.25 11.14c-1.08,0 -2.08,-0.26 -2.99,-0.77 -0.91,-0.51 -1.64,-1.2 -2.17,-2.08 -0.53,-0.88 -0.8,-1.83 -0.8,-2.87 0,-1.04 0.27,-1.99 0.8,-2.86 0.53,-0.88 1.26,-1.57 2.17,-2.07 0.91,-0.51 1.91,-0.77 2.99,-0.77 1.07,0 2.07,0.26 2.98,0.77 0.91,0.5 1.64,1.19 2.17,2.07 0.54,0.87 0.8,1.82 0.8,2.86 0,1.04 -0.26,1.99 -0.8,2.87 -0.53,0.88 -1.26,1.57 -2.17,2.08 -0.91,0.51 -1.91,0.77 -2.98,0.77zm0 -2.75c0.54,0 1.04,-0.13 1.49,-0.38 0.45,-0.25 0.81,-0.6 1.07,-1.05 0.26,-0.45 0.39,-0.96 0.39,-1.53 0,-0.57 -0.13,-1.08 -0.39,-1.53 -0.26,-0.45 -0.62,-0.8 -1.07,-1.05 -0.45,-0.25 -0.95,-0.38 -1.49,-0.38 -0.54,0 -1.04,0.13 -1.49,0.38 -0.45,0.25 -0.81,0.6 -1.07,1.05 -0.26,0.45 -0.39,0.96 -0.39,1.53 0,0.57 0.13,1.08 0.4,1.53 0.26,0.44 0.61,0.8 1.06,1.05 0.46,0.25 0.95,0.38 1.49,0.38zm7.24 -8.39l2.64 0 4.53 5.99 0 -5.99 3.01 0 0 10.87 -2.61 0 -4.56 -6.01 0 6.01 -3.01 0 0 -10.87z"/>
   <path class="fil2" d="M20.06 37.97c-2.56,0 -4.88,-0.5 -6.96,-1.51 -2.07,-1 -3.7,-2.44 -4.89,-4.32 -0.96,-1.52 -1.53,-3.24 -1.71,-5.16l8.57 0c0.23,0.74 0.59,1.38 1.1,1.92 0.92,1 2.21,1.5 3.89,1.5 1.65,0 2.93,-0.5 3.84,-1.5 0.51,-0.55 0.87,-1.19 1.1,-1.92l4.05 0 -4.18 10.34c-1.47,0.44 -3.07,0.65 -4.81,0.65zm29.66 0l-1.58 -4.08 -11.44 0 -1.56 4.08 -8.84 0 4.44 -10.99 8.6 0 6.15 0 8.63 0 4.44 10.99 -8.84 0z"/>
   <rect class="fil3" y="42.02" width="65" height="0.78"/>
  </g>
 </g>
</svg>
